 <svg  version="1.0" xmlns="http://www.w3.org/2000/svg"  width="300.000000pt" height="300.000000pt" viewBox="0 0 300.000000 300.000000"  preserveAspectRatio="xMidYMid meet">  <g transform="translate(0.000000,300.000000) scale(0.100000,-0.100000)" fill="#ffffff" stroke="none"> <path d="M415 2615 c-57 -20 -112 -85 -121 -142 -15 -99 -30 -80 549 -661 293 -293 548 -543 567 -555 48 -30 132 -30 180 0 19 12 274 262 567 555 580 582 564 562 549 662 -16 106 -139 179 -239 144 -30 -11 -148 -123 -501 -476 l-463 -462 -465 463 c-428 427 -469 465 -511 475 -57 15 -62 15 -112 -3z"/> <path d="M385 1756 c-37 -17 -80 -62 -94 -99 -16 -41 -13 -113 5 -150 21 -41 1044 -1068 1103 -1108 36 -23 55 -29 101 -29 46 0 65 6 101 29 24 17 279 265 566 553 444 446 523 529 532 563 16 59 14 94 -10 143 -43 87 -158 128 -242 86 -18 -9 -238 -221 -490 -472 l-457 -457 -463 462 c-254 253 -476 468 -494 477 -39 19 -117 20 -158 2z"/> </g> </svg> 